<?xml version="1.0" encoding="UTF-8" standalone="no"?>
<svg width="27px" height="33px" viewBox="0 0 27 33" version="1.1" xmlns="http://www.w3.org/2000/svg" xmlns:xlink="http://www.w3.org/1999/xlink">
    <!-- Generator: Sketch 41 (35326) - http://www.bohemiancoding.com/sketch -->
    <title>Page 1</title>
    <desc>Created with Sketch.</desc>
    <defs></defs>
    <g id="Page-1" stroke="none" stroke-width="1" fill="none" fill-rule="evenodd">
        <g id="EditProfile-Copy-4" transform="translate(-253.000000, -435.000000)" fill="#EFF1F3">
            <path d="M254.139697,466.477301 L254.139697,436.139697 L270.394061,436.139697 L270.394061,444.03609 C270.394061,444.350837 270.649163,444.605939 270.96391,444.605939 L278.860303,444.605939 L278.860303,466.477301 L254.139697,466.477301 Z M271.533758,436.945653 L278.054347,443.466242 L271.533758,443.466242 L271.533758,436.945653 Z M279.988983,443.92459 C279.982145,443.891349 279.972077,443.859817 279.959921,443.828855 C279.938076,443.779659 279.92611,443.757624 279.912813,443.73597 C279.878432,443.684304 279.857538,443.657521 279.833034,443.633207 L271.366793,435.166966 C271.342289,435.142462 271.315696,435.121568 271.287964,435.102383 C271.242376,435.0737 271.220341,435.061924 271.197737,435.051666 C271.140183,435.027923 271.108841,435.017855 271.07655,435.011397 C271.042169,435.004369 271.008548,435.00171 270.974737,435.00095 C270.971128,435.00095 253.569849,435 253.569849,435 C253.255102,435 253,435.255102 253,435.569849 L253,467.04715 C253,467.361896 253.255102,467.616998 253.569849,467.616998 L279.430151,467.616998 C279.744898,467.616998 280,467.361896 280,467.04715 L280,444.03609 C279.99829,443.991072 279.995631,443.957451 279.988983,443.92459 Z" id="Page-1"></path>
        </g>
    </g>
</svg>