<?xml version="1.0" encoding="UTF-8" standalone="no"?>
<svg width="120px" height="120px" viewBox="0 0 120 120" version="1.1" xmlns="http://www.w3.org/2000/svg" xmlns:xlink="http://www.w3.org/1999/xlink">
    <!-- Generator: Sketch 41 (35326) - http://www.bohemiancoding.com/sketch -->
    <title>Group</title>
    <desc>Created with Sketch.</desc>
    <defs>
        <linearGradient x1="0%" y1="-9.29130979%" x2="84.899353%" y2="88.1787478%" id="linearGradient-1">
            <stop stop-color="#F08D31" offset="0%"></stop>
            <stop stop-color="#EE0E5C" offset="100%"></stop>
        </linearGradient>
    </defs>
    <g id="Page-1" stroke="none" stroke-width="1" fill="none" fill-rule="evenodd">
        <g id="iPhone-7-Copy-13" transform="translate(-128.000000, -247.000000)">
            <g id="Group" transform="translate(128.000000, 247.000000)">
                <rect id="Rectangle" fill="url(#linearGradient-1)" x="-6.25916507e-14" y="0" width="120" height="120" rx="60"></rect>
                <path d="M85.7793018,74.0882494 C85.9850616,64.9177818 82.8363708,56.9327926 77.446975,49.6896712 C71.9216645,42.2596671 65.1674585,36.0245797 58.2811132,29.9121932 C57.4108815,29.1401221 56.5085588,28.4020297 55.5005247,27.545012 C55.3419576,28.0414782 55.2343584,28.330297 55.1588502,28.6247789 C53.6165958,34.7239515 51.0285532,40.3757382 47.7835895,45.7368184 C44.8878511,50.5202611 41.8429841,55.2149817 39.0623956,60.0626064 C36.1968605,65.0612474 34.5753225,70.4676325 35.4304525,76.2912003 C36.5347596,83.8193651 40.9708647,88.2762349 47.0360586,91.1795242 C48.94264,92.5613237 51.202222,93.6108873 53.6883286,94.4395895 C53.3938467,94.1602093 53.1012525,93.8770536 52.8067707,93.5976734 C48.7463187,89.7354304 47.9459321,85.9656849 50.2168404,80.8424554 C51.4985916,77.9542678 52.9219206,75.1283744 54.3093833,72.213759 C56.5859547,74.0731477 57.822401,76.6290994 58.4038139,79.8759508 C60.2443256,77.078373 61.4071515,74.3430894 62.1754471,71.4246986 C62.9210903,68.5855913 63.1060854,65.6936283 62.788951,62.5147343 C66.6568572,65.3538415 69.6809595,68.7271691 71.6026425,72.9858301 C75.1118848,80.7726103 73.252496,89.0048888 66.7814457,94.4660174 C66.6398678,94.5868304 66.5266056,94.7397345 66.3661507,94.915291 C66.5435949,94.9605959 66.6247662,95.0096762 66.696499,94.99835 C68.8805728,94.6831033 70.9513845,93.8204225 72.7767945,92.5707622 C80.0746594,89.6032911 85.5999699,82.0600247 85.7793018,74.0882494 L85.7793018,76.2912003" id="Fill-1" fill="#000000"></path>
            </g>
        </g>
    </g>
</svg>