<?xml version="1.0" encoding="UTF-8" standalone="no"?>
<svg width="18px" height="24px" viewBox="0 0 18 24" version="1.1" xmlns="http://www.w3.org/2000/svg" xmlns:xlink="http://www.w3.org/1999/xlink">
    <!-- Generator: Sketch 41 (35326) - http://www.bohemiancoding.com/sketch -->
    <title>Page 1</title>
    <desc>Created with Sketch.</desc>
    <defs>
        <polygon id="path-1" points="9.46119117 0.0110350877 0.00788047538 0.0110350877 0.00788047538 9.42329145 9.46119117 9.42329145 9.46119117 0.0110350877"></polygon>
        <polygon id="path-3" points="17.6185263 0.0301923246 17.6185263 11.8464912 0 11.8464912 0 0.0301923246 17.6185263 0.0301923246"></polygon>
    </defs>
    <g id="Page-1" stroke="none" stroke-width="1" fill="none" fill-rule="evenodd">
        <g id="SignIn-/-Signup" transform="translate(-90.000000, -231.000000)">
            <g id="Page-1" transform="translate(90.000000, 231.000000)">
                <g id="Group-3" transform="translate(4.074703, 0.070105)">
                    <mask id="mask-2" fill="white">
                        <use xlink:href="#path-1"></use>
                    </mask>
                    <g id="Clip-2"></g>
                    <path d="M9.46119117,4.7171511 C9.46119117,2.11798224 7.34503497,0.0110107456 4.73453582,0.0110107456 C2.12411817,0.0110107456 0.00788047538,2.11798224 0.00788047538,4.7171511 C0.00788047538,7.31631996 2.12411817,9.42329145 4.73453582,9.42329145 C7.34503497,9.42329145 9.46119117,7.31631996 9.46119117,4.7171511" id="Fill-1" fill="#FEFEFE" mask="url(#mask-2)"></path>
                </g>
                <g id="Group-6" transform="translate(0.000000, 11.510895)">
                    <mask id="mask-4" fill="white">
                        <use xlink:href="#path-3"></use>
                    </mask>
                    <g id="Clip-5"></g>
                    <path d="M8.98543701,0.0301923246 L8.6331382,0.0301923246 C3.86516537,0.0301923246 -1.62988115e-05,3.87859803 -1.62988115e-05,8.62587654 L-1.62988115e-05,10.0745564 C2.70737929,11.215552 5.68427572,11.8464993 8.80924686,11.8464993 C11.934218,11.8464993 14.9111144,11.2153897 17.6185915,10.0744752 L17.6185915,8.62587654 C17.6185915,3.87859803 13.7534098,0.0301923246 8.98543701,0.0301923246" id="Fill-4" fill="#FEFEFE" mask="url(#mask-4)"></path>
                </g>
            </g>
        </g>
    </g>
</svg>