<?xml version="1.0" encoding="UTF-8" standalone="no"?>
<svg width="32px" height="24px" viewBox="0 0 32 24" version="1.1" xmlns="http://www.w3.org/2000/svg" xmlns:xlink="http://www.w3.org/1999/xlink">
    <!-- Generator: Sketch 41 (35326) - http://www.bohemiancoding.com/sketch -->
    <title>Page 1</title>
    <desc>Created with Sketch.</desc>
    <defs>
        <linearGradient x1="0%" y1="-9.29130979%" x2="84.899353%" y2="88.1787478%" id="linearGradient-1">
            <stop stop-color="#F08D31" offset="0%"></stop>
            <stop stop-color="#EE0E5C" offset="100%"></stop>
        </linearGradient>
        <polygon id="path-2" points="25.4920335 0.0221032141 7.56071995e-06 0.0221032141 7.56071995e-06 23.5431413 25.4920335 23.5431413 25.4920335 0.0221032141"></polygon>
        <polygon id="path-4" points="0.0012853224 16.6314087 18.9030853 16.6314087 18.9030853 8.32677034 18.9030853 0.0221320131 0.0012853224 0.0221320131 0.0012853224 16.6314087"></polygon>
    </defs>
    <g id="Page-1" stroke="none" stroke-width="1" fill="none" fill-rule="evenodd">
        <g id="SignIn-/-Signup-Copy" transform="translate(-106.000000, -398.000000)">
            <g id="Page-1" transform="translate(106.000000, 398.000000)">
                <g id="Group-3" transform="translate(0.000000, 0.049894)">
                    <mask id="mask-3" fill="white">
                        <use xlink:href="#path-2"></use>
                    </mask>
                    <g id="Clip-2"></g>
                    <path d="M14.5137925,8.01214152 C16.5505748,6.43467761 19.2372011,5.5658845 22.0785952,5.5658845 C23.2547408,5.5658845 24.4041215,5.71520719 25.4920335,6.00154101 C24.8356118,4.91833953 23.9354325,3.92131898 22.812968,3.05202188 C20.2901825,1.09815535 16.941464,0.0220816149 13.3837673,0.0220816149 C9.82607046,0.0220816149 6.47735198,1.09815535 3.95456654,3.05202188 C1.4044113,5.02705566 7.56071995e-06,7.66086601 7.56071995e-06,10.4681902 C7.56071995e-06,12.1416987 0.491076324,13.7401139 1.45960455,15.2191573 C2.33513593,16.5560777 3.59354216,17.7488593 5.1093153,18.6806502 L5.07952607,23.1084208 C5.07846757,23.2634313 5.16465977,23.4070661 5.30544038,23.4848234 C5.37583068,23.523702 5.45446217,23.5431413 5.53316926,23.5431413 C5.61172515,23.5431413 5.69035663,23.523774 5.76074694,23.4848954 L10.7745628,20.7155138 C11.6310411,20.8474852 12.5079334,20.9143708 13.3837673,20.9143708 C13.874836,20.9143708 14.3615952,20.8931315 14.8430618,20.852597 C14.7316924,20.7731118 14.6216083,20.6920427 14.5137925,20.6085257 C12.37116,18.9491287 11.1911585,16.7123842 11.1911585,14.3103336 C11.1911585,11.908355 12.37116,9.67161052 14.5137925,8.01214152 Z" id="Fill-1" fill="#358DFF" mask="url(#mask-3)"></path>
                </g>
                <g id="Group-6" opacity="0.992479011" transform="translate(12.626402, 6.961648)">
                    <mask id="mask-5" fill="white">
                        <use xlink:href="#path-4"></use>
                    </mask>
                    <g id="Clip-5"></g>
                    <path d="M13.6708402,0.793008604 C12.3767474,0.288810531 10.9403618,0.0221320131 9.4521853,0.0221320131 C6.93990926,0.0221320131 4.57529409,0.781920998 2.79376164,2.16167994 C0.993024962,3.55634235 0.0012853224,5.41618022 0.0012853224,7.39855774 C0.0012853224,9.38100725 0.993024962,11.2408451 2.79376164,12.6355075 C3.27802576,13.0106142 3.80576401,13.3394265 4.3675255,13.6200725 C5.87210878,14.3717978 7.6228691,14.7750555 9.4521853,14.7750555 C10.0706522,14.7750555 10.6898752,14.7278251 11.2946572,14.6346605 L14.8351155,16.5902549 C14.884865,16.6176859 14.9403607,16.6314375 14.9958564,16.6314375 C15.0514277,16.6314375 15.1069234,16.617614 15.1566729,16.5901829 C15.2560208,16.5353209 15.3169602,16.4338045 15.3162041,16.3244404 L15.2951853,13.1977355 C16.3655564,12.5398229 17.2541679,11.6975249 17.8724079,10.7534225 C18.5562751,9.70902759 18.9030853,8.58032372 18.9030853,7.39855774 C18.9030853,5.41618022 17.9113456,3.55634235 16.110609,2.16167994 C15.3844774,1.59923594 14.5613418,1.13996427 13.6708402,0.793008604 Z" id="Fill-4" fill="#358DFF" mask="url(#mask-5)"></path>
                </g>
            </g>
        </g>
    </g>
</svg>