<?xml version="1.0" encoding="utf-8"?>
<!-- Generator: Adobe Illustrator 16.0.0, SVG Export Plug-In . SVG Version: 6.00 Build 0)  -->
<!DOCTYPE svg PUBLIC "-//W3C//DTD SVG 1.1//EN" "http://www.w3.org/Graphics/SVG/1.1/DTD/svg11.dtd">
<svg version="1.1" id="Layer_1" xmlns="http://www.w3.org/2000/svg" xmlns:xlink="http://www.w3.org/1999/xlink" x="0px" y="0px"
	 width="216.334px" height="216.666px" viewBox="0 0 216.334 216.666" enable-background="new 0 0 216.334 216.666"
	 xml:space="preserve">
<path fill="#306BFF" d="M0,13.667c0,7.548,6.119,13.667,13.667,13.667h189.001c7.547,0,13.666-6.119,13.666-13.667l0,0
	C216.334,6.119,210.215,0,202.668,0H13.667C6.119,0,0,6.119,0,13.667L0,13.667z"/>
<path fill="#306BFF" d="M60,108c0,7.548,6.119,13.666,13.667,13.666h129.001c7.547,0,13.666-6.118,13.666-13.666l0,0
	c0-7.548-6.119-13.667-13.666-13.667H73.667C66.119,94.333,60,100.452,60,108L60,108z"/>
<path fill="#306BFF" d="M0,203c0,7.548,6.119,13.666,13.667,13.666h189.001c7.547,0,13.666-6.118,13.666-13.666l0,0
	c0-7.548-6.119-13.666-13.666-13.666H13.667C6.119,189.334,0,195.452,0,203L0,203z"/>
</svg>
