<?xml version="1.0" encoding="UTF-8" standalone="no"?>
<svg width="154px" height="134px" viewBox="0 0 154 134" version="1.1" xmlns="http://www.w3.org/2000/svg" xmlns:xlink="http://www.w3.org/1999/xlink">
    <!-- Generator: Sketch 41 (35326) - http://www.bohemiancoding.com/sketch -->
    <title>Page 1</title>
    <desc>Created with Sketch.</desc>
    <defs>
        <linearGradient x1="0%" y1="-9.29130979%" x2="84.899353%" y2="88.1787478%" id="linearGradient-1">
            <stop stop-color="#F08D31" offset="0%"></stop>
            <stop stop-color="#EE0E5C" offset="100%"></stop>
        </linearGradient>
        <polygon id="path-2" points="154 66.9738091 154 133.947492 0 133.947492 0 66.9738091 0 0.000126018808 154 0.000126018808 154 66.9738091"></polygon>
    </defs>
    <g id="Page-1" stroke="none" stroke-width="1" fill="none" fill-rule="evenodd">
        <g id="SignIn-/-Signup-Copy-2" transform="translate(-111.000000, -250.000000)">
            <g id="Page-1" transform="translate(111.000000, 250.000000)">
                <mask id="mask-3" fill="white">
                    <use xlink:href="#path-2"></use>
                </mask>
                <g id="Clip-2"></g>
                <path d="M98.9408602,68.0271793 L60.4408602,102.892383 L76.0602688,70.5475555 L64.9946237,57.9456746 L103.494624,26.4409724 L86.9354839,57.9456746 L98.9408602,68.0271793 Z M113.223118,0.000126018808 C97.4592312,0.000126018808 83.7863495,9.07726082 77,22.3609034 L77,22.3613235 C70.2136505,9.07768088 56.5407688,0.000126018808 40.7768817,0.000126018808 C18.2564516,0.000126018808 0,18.5248909 0,41.3763016 C0,99.554985 77,133.947618 77,133.947618 C77,133.947618 154,99.554985 154,41.3763016 C154,18.5244708 135.743548,0.000126018808 113.223118,0.000126018808 L113.223118,0.000126018808 Z" id="Fill-1" fill="url(#linearGradient-1)" mask="url(#mask-3)"></path>
            </g>
        </g>
    </g>
</svg>