<?xml version="1.0" encoding="UTF-8" standalone="no"?>
<svg width="116px" height="117px" viewBox="0 0 116 117" version="1.1" xmlns="http://www.w3.org/2000/svg" xmlns:xlink="http://www.w3.org/1999/xlink">
    <!-- Generator: Sketch 41 (35326) - http://www.bohemiancoding.com/sketch -->
    <title>Page 1</title>
    <desc>Created with Sketch.</desc>
    <defs>
        <polygon id="path-1" points="57.8691073 116.393782 0 116.393782 0 0.262492228 57.8691073 0.262492228 115.738215 0.262492228 115.738215 116.393782"></polygon>
    </defs>
    <g id="Page-1" stroke="none" stroke-width="1" fill="none" fill-rule="evenodd">
        <g id="EditProfile-Copy-6" transform="translate(-31.000000, -98.000000)">
            <g id="Page-1" transform="translate(31.000000, 98.000000)">
                <g id="Group-3" transform="translate(0.000000, 0.343725)">
                    <mask id="mask-2" fill="white">
                        <use xlink:href="#path-1"></use>
                    </mask>
                    <g id="Clip-2"></g>
                    <path d="M57.8693188,112.756477 C27.9588396,112.756477 3.62481875,88.340456 3.62481875,58.3278342 C3.62481875,28.3158187 27.9588396,3.89979793 57.8693188,3.89979793 C87.7797979,3.89979793 112.113215,28.3158187 112.113215,58.3278342 C112.113215,88.340456 87.7797979,112.756477 57.8693188,112.756477 M57.8693188,0.262492228 C25.9602563,0.262492228 -0.00018125,26.3104508 -0.00018125,58.3278342 C-0.00018125,90.3452176 25.9602563,116.393782 57.8693188,116.393782 C89.7783813,116.393782 115.738215,90.3452176 115.738215,58.3278342 C115.738215,26.3104508 89.7783813,0.262492228 57.8693188,0.262492228" id="Fill-1" fill="#C3C8CD" mask="url(#mask-2)"></path>
                </g>
                <path d="M88.7354083,43.9000974 C88.5432833,43.2235585 87.8339917,42.8276984 87.1597417,43.0204756 L72.7539917,47.1409368 C72.74795,47.1427554 72.7431167,47.1457865 72.737075,47.1476052 C72.708075,47.1566984 72.6808875,47.1706415 72.6524917,47.1815534 C72.44345,47.2615741 72.2628042,47.3876674 72.1268667,47.5513461 C72.0978667,47.5865067 72.0743042,47.6271233 72.0489292,47.6659212 C72.0289917,47.6956259 72.0060333,47.7229057 71.9891167,47.754429 C71.9709917,47.7871648 71.9583042,47.824144 71.9432,47.8593047 C71.9244708,47.9023461 71.9039292,47.9441751 71.8894292,47.9890352 C71.8882208,47.993885 71.8858042,47.9975223 71.8839917,48.0017658 C71.8767417,48.0278332 71.8749292,48.0539005 71.8688875,48.0799679 C71.8562,48.133315 71.8435125,48.1866622 71.838075,48.241828 C71.8350542,48.2685016 71.8368667,48.2945689 71.8362625,48.3206363 C71.8332417,48.3800456 71.8320333,48.4388487 71.838075,48.498258 C71.8398875,48.5164446 71.8447208,48.5334187 71.8471375,48.550999 C71.8549917,48.6079834 71.8616375,48.6649679 71.8773458,48.7219523 C71.95045,48.9795948 72.099075,49.1954083 72.2912,49.3542373 C72.302075,49.3633306 72.3153667,49.369999 72.3268458,49.3790922 C72.3800125,49.4197088 72.4337833,49.459113 72.4917833,49.4912425 C72.5207833,49.5070041 72.5528042,49.5173098 72.5830125,49.5312528 C72.6295333,49.5518642 72.6748458,49.5742943 72.7237833,49.5894497 C72.7286167,49.5912684 72.7328458,49.5936933 72.7376792,49.5955119 L87.0818042,53.9269368 C87.7530333,54.1300197 88.4677625,53.7444653 88.6701583,53.0709575 C88.87195,52.3968435 88.4883042,51.6796881 87.8164708,51.4772114 L77.6398875,48.4042943 L87.8587625,45.481113 C88.5330125,45.2883358 88.9275333,44.5766363 88.7354083,43.9000974" id="Fill-4" fill="#C3C8CD"></path>
                <path d="M39.6852917,47.7221782 C38.4836042,47.7221782 37.5096875,46.7449554 37.5096875,45.5391886 C37.5096875,44.5128622 38.2189792,43.6574891 39.1705417,43.4247016 C38.3446458,42.9415461 37.3876458,42.6596549 36.362375,42.6596549 C33.2756875,42.6596549 30.7738333,45.1706083 30.7738333,48.2671679 C30.7738333,51.3643337 33.2756875,53.8746808 36.362375,53.8746808 C39.4490625,53.8746808 41.9509167,51.3643337 41.9509167,48.2671679 C41.9509167,47.6354891 41.8421667,47.0298777 41.6494375,46.4630642 C41.3026458,47.2050746 40.5565,47.7221782 39.6852917,47.7221782" id="Fill-6" fill="#C3C8CD"></path>
                <path d="M57.8693792,82.6564383 C65.1193792,82.6564383 70.9961083,76.7591534 70.9961083,69.4851482 L44.74265,69.4851482 C44.74265,76.7591534 50.6193792,82.6564383 57.8693792,82.6564383" id="Fill-8" fill="#C3C8CD"></path>
            </g>
        </g>
    </g>
</svg>