<?xml version="1.0" encoding="UTF-8" standalone="no"?>
<svg width="56px" height="56px" viewBox="0 0 56 56" version="1.1" xmlns="http://www.w3.org/2000/svg" xmlns:xlink="http://www.w3.org/1999/xlink">
    <!-- Generator: Sketch 41 (35326) - http://www.bohemiancoding.com/sketch -->
    <title>Page 1</title>
    <desc>Created with Sketch.</desc>
    <defs>
        <polygon id="path-1" points="27.9368104 55.7098446 0 55.7098446 0 0.125637306 27.9368104 0.125637306 55.8736208 0.125637306 55.8736208 55.7098446"></polygon>
    </defs>
    <g id="Page-1" stroke="none" stroke-width="1" fill="none" fill-rule="evenodd">
        <g id="EditProfile-Copy-6" transform="translate(-308.000000, -293.000000)">
            <g id="Page-1" transform="translate(308.000000, 293.000000)">
                <g id="Group-3" transform="translate(0.000000, 0.164518)">
                    <mask id="mask-2" fill="white">
                        <use xlink:href="#path-1"></use>
                    </mask>
                    <g id="Clip-2"></g>
                    <path d="M27.9369125,53.9689119 C13.4973708,53.9689119 1.7499125,42.2826114 1.7499125,27.9175959 C1.7499125,13.5528705 13.4973708,1.86656995 27.9369125,1.86656995 C42.3764542,1.86656995 54.1236208,13.5528705 54.1236208,27.9175959 C54.1236208,42.2826114 42.3764542,53.9689119 27.9369125,53.9689119 M27.9369125,0.125637306 C12.5325375,0.125637306 -8.75000005e-05,12.5930363 -8.75000005e-05,27.9175959 C-8.75000005e-05,43.2421554 12.5325375,55.7098446 27.9369125,55.7098446 C43.3412875,55.7098446 55.8736208,43.2421554 55.8736208,27.9175959 C55.8736208,12.5930363 43.3412875,0.125637306 27.9369125,0.125637306" id="Fill-1" fill="#0076FF" mask="url(#mask-2)"></path>
                </g>
                <path d="M42.8377833,21.0120124 C42.7450333,20.688199 42.4026167,20.4987275 42.0771167,20.5909969 L35.1226167,22.5631834 C35.1197,22.5640539 35.1173667,22.5655047 35.11445,22.5663751 C35.10045,22.5707275 35.087325,22.577401 35.0736167,22.5826238 C34.9727,22.6209244 34.8854917,22.6812767 34.8198667,22.7596187 C34.8058667,22.7764477 34.7944917,22.7958881 34.7822417,22.814458 C34.7726167,22.8286756 34.7615333,22.8417326 34.7533667,22.8568207 C34.7446167,22.8724891 34.7384917,22.8901886 34.7312,22.9070176 C34.7221583,22.9276187 34.7122417,22.9476394 34.7052417,22.9691109 C34.7046583,22.9714321 34.7034917,22.9731731 34.7026167,22.9752041 C34.6991167,22.9876808 34.6982417,23.0001575 34.695325,23.0126342 C34.6892,23.0381679 34.683075,23.0637016 34.68045,23.0901057 C34.6789917,23.1028725 34.6798667,23.1153492 34.679575,23.1278259 C34.6781167,23.1562611 34.6775333,23.1844062 34.68045,23.2128415 C34.681325,23.2215461 34.6836583,23.2296705 34.684825,23.238085 C34.6886167,23.2653596 34.691825,23.2926342 34.6994083,23.3199088 C34.7347,23.4432249 34.80645,23.5465202 34.8992,23.6225409 C34.90445,23.6268933 34.9108667,23.630085 34.9164083,23.6344373 C34.942075,23.6538777 34.9680333,23.6727378 34.9960333,23.6881161 C35.0100333,23.6956601 35.0254917,23.7005927 35.040075,23.7072663 C35.0625333,23.7171316 35.0844083,23.7278674 35.1080333,23.7351212 C35.1103667,23.7359917 35.1124083,23.7371523 35.1147417,23.7380228 L42.0394917,25.8111834 C42.3635333,25.9083855 42.708575,25.7238466 42.8062833,25.4014839 C42.9037,25.0788311 42.7184917,24.7355772 42.3941583,24.6386653 L37.481325,23.1678674 L42.414575,21.7687378 C42.740075,21.6764684 42.9305333,21.3358259 42.8377833,21.0120124" id="Fill-4" fill="#0076FF"></path>
                <path d="M19.1584167,22.8413845 C18.5782917,22.8413845 18.108125,22.3736539 18.108125,21.7965347 C18.108125,21.3053016 18.4505417,20.8958922 18.9099167,20.7844725 C18.5112083,20.5532187 18.0492083,20.4182964 17.55425,20.4182964 C16.064125,20.4182964 14.8563333,21.6201202 14.8563333,23.1022342 C14.8563333,24.5846383 16.064125,25.786172 17.55425,25.786172 C19.044375,25.786172 20.2521667,24.5846383 20.2521667,23.1022342 C20.2521667,22.7998922 20.1996667,22.5100269 20.106625,22.2387316 C19.9392083,22.5938819 19.579,22.8413845 19.1584167,22.8413845" id="Fill-6" fill="#0076FF"></path>
                <path d="M27.9369417,39.562056 C31.4369417,39.562056 34.2739833,36.7394238 34.2739833,33.2578487 L21.5999,33.2578487 C21.5999,36.7394238 24.4369417,39.562056 27.9369417,39.562056" id="Fill-8" fill="#0076FF"></path>
            </g>
        </g>
    </g>
</svg>