<svg width="52" height="52" viewBox="0 0 52 52" xmlns="http://www.w3.org/2000/svg"><title>Ic_Bookmark</title><g transform="translate(1 1)" fill="none" fill-rule="evenodd"><path d="M25.583 30.065c.17 0 .338.044.488.132l7.188 4.215V14.875h-15.35v19.537l7.186-4.215c.15-.088.32-.132.49-.132M34.21 37c-.17 0-.34-.044-.49-.132l-8.14-4.774-8.14 4.774c-.294.173-.66.176-.96.01-.298-.167-.482-.478-.482-.816V13.937c0-.517.427-.937.954-.937h17.258c.526 0 .953.42.953.937v22.125c0 .338-.184.65-.482.816-.147.08-.31.122-.47.122" fill="#2F84EB"/><circle stroke="#2F84EB" stroke-width="2" cx="25" cy="25" r="25"/></g></svg>