<?xml version="1.0" encoding="UTF-8" standalone="no"?>
<svg width="62px" height="62px" viewBox="0 0 62 62" version="1.1" xmlns="http://www.w3.org/2000/svg" xmlns:xlink="http://www.w3.org/1999/xlink">
    <!-- Generator: Sketch 41 (35326) - http://www.bohemiancoding.com/sketch -->
    <title>Dislike</title>
    <desc>Created with Sketch.</desc>
    <defs></defs>
    <g id="Page-1" stroke="none" stroke-width="1" fill="none" fill-rule="evenodd">
        <g id="MyProfile-Copy" transform="translate(-119.000000, -583.000000)">
            <g id="Dislike" transform="translate(119.000000, 582.000000)">
                <g id="Page-1" transform="translate(0.000000, 0.500000)">
                    <circle id="Oval-4" fill="#F03548" cx="31" cy="31.5" r="31"></circle>
                    <path d="M30.9228066,33.5227689 C34.7040442,36.8367244 42.2929724,42.4333022 42.2929724,42.4333022 C42.2929724,42.4333022 36.7273149,34.8023689 33.4316685,30.9999689 C36.7273149,27.1975689 42.2929724,19.5666356 42.2929724,19.5666356 C42.2929724,19.5666356 34.7041989,25.1632133 30.9228066,28.4770133 C27.1412597,25.1630578 19.5526409,19.5666356 19.5526409,19.5666356 C19.5526409,19.5666356 25.1181436,27.1974133 28.4139448,30.9999689 C25.1181436,34.8025244 19.5526409,42.4333022 19.5526409,42.4333022 C19.5526409,42.4333022 27.1414144,36.83688 30.9228066,33.5227689" id="Fill-1" fill="#FEFEFE"></path>
                    <path d="M19.5533215,45 C18.895863,45 18.2421171,44.7453556 17.7477083,44.2482 C16.8568133,43.3523556 16.7492994,41.9371111 17.494316,40.9154222 C17.6937193,40.6418 21.8155978,34.9968444 25.076747,31 C21.8155978,27.003 17.693874,21.3582 17.494316,21.0845778 C16.7492994,20.0628889 16.8568133,18.6476444 17.7477083,17.7518 C18.6386033,16.8559556 20.0463381,16.748 21.0620729,17.4968444 C21.3341834,17.6975111 26.9479514,21.8421333 30.9228685,25.1214 C34.8976309,21.8421333 40.5113989,17.6975111 40.7833547,17.4968444 C41.7993989,16.7478444 43.206979,16.8559556 44.097874,17.7518 C44.9887691,18.6476444 45.0962829,20.0628889 44.3512663,21.0845778 C44.1517083,21.3582 40.0301392,27.0031556 36.7688354,31 C40.0301392,34.9968444 44.151863,40.6418 44.3512663,40.9154222 C45.0964376,41.9371111 44.9887691,43.3523556 44.097874,44.2482 C43.2071337,45.1440444 41.7995536,45.2521556 40.7835094,44.5031556 C40.5115536,44.3024889 34.8976309,40.1577111 30.9228685,36.8784444 C26.9479514,40.1578667 21.3340287,44.3024889 21.0620729,44.5031556 C20.6100508,44.8363556 20.0803713,45 19.5533215,45" id="Fill-3" fill="#FEFEFE"></path>
                </g>
            </g>
        </g>
    </g>
</svg>