<?xml version="1.0" encoding="UTF-8" standalone="no"?>
<svg width="27px" height="33px" viewBox="0 0 27 33" version="1.1" xmlns="http://www.w3.org/2000/svg" xmlns:xlink="http://www.w3.org/1999/xlink">
    <!-- Generator: Sketch 41 (35326) - http://www.bohemiancoding.com/sketch -->
    <title>Page 1</title>
    <desc>Created with Sketch.</desc>
    <defs></defs>
    <g id="Symbols" stroke="none" stroke-width="1" fill="none" fill-rule="evenodd">
        <g id="Bubble_File" transform="translate(-238.000000, -16.000000)" fill="#0076FF">
            <path d="M239.139697,47.6875534 L239.139697,17.3499497 L255.394061,17.3499497 L255.394061,25.2463428 C255.394061,25.5610892 255.649163,25.8161914 255.96391,25.8161914 L263.860303,25.8161914 L263.860303,47.6875534 L239.139697,47.6875534 Z M256.533758,18.1559057 L263.054347,24.6764941 L256.533758,24.6764941 L256.533758,18.1559057 Z M264.988983,25.1348424 C264.982145,25.1016012 264.972077,25.0700696 264.959921,25.0391078 C264.938076,24.9899109 264.92611,24.9678767 264.912813,24.9462225 C264.878432,24.8945562 264.857538,24.8677733 264.833034,24.8434597 L256.366793,16.377218 C256.342289,16.3527145 256.315696,16.3318201 256.287964,16.3126351 C256.242376,16.2839528 256.220341,16.2721759 256.197737,16.2619186 C256.140183,16.2381749 256.108841,16.2281076 256.07655,16.2216493 C256.042169,16.2146212 256.008548,16.2119619 255.974737,16.2112021 C255.971128,16.2112021 238.569849,16.2102523 238.569849,16.2102523 C238.255102,16.2102523 238,16.4653546 238,16.780101 L238,48.257402 C238,48.5721485 238.255102,48.8272507 238.569849,48.8272507 L264.430151,48.8272507 C264.744898,48.8272507 265,48.5721485 265,48.257402 L265,25.2463428 C264.99829,25.2013247 264.995631,25.1677036 264.988983,25.1348424 Z" id="Page-1"></path>
        </g>
    </g>
</svg>