<?xml version="1.0" encoding="UTF-8" standalone="no"?>
<svg width="18px" height="24px" viewBox="0 0 18 24" version="1.1" xmlns="http://www.w3.org/2000/svg" xmlns:xlink="http://www.w3.org/1999/xlink">
    <!-- Generator: Sketch 41 (35326) - http://www.bohemiancoding.com/sketch -->
    <title>Page 1</title>
    <desc>Created with Sketch.</desc>
    <defs>
        <polygon id="path-1" points="17.6353591 8.8021697 17.6353591 17.6043258 0 17.6043258 0 8.8021697 0 1.35417891e-05 17.6353591 1.35417891e-05 17.6353591 8.8021697"></polygon>
    </defs>
    <g id="Page-1" stroke="none" stroke-width="1" fill="none" fill-rule="evenodd">
        <g id="SignIn-/-Signup" transform="translate(-89.000000, -295.000000)">
            <g id="Page-1" transform="translate(89.000000, 295.000000)">
                <g id="Group-3" transform="translate(0.000000, 6.240564)">
                    <mask id="mask-2" fill="white">
                        <use xlink:href="#path-1"></use>
                    </mask>
                    <g id="Clip-2"></g>
                    <path d="M8.81767956,12.8853306 C7.39416694,12.8853306 6.24020399,11.7333644 6.24020399,10.3123906 C6.24020399,9.52832105 6.66528398,8.90076069 7.14567794,8.35428179 C7.40752911,8.05639629 7.40858045,7.82384991 7.42624972,7.62756168 C7.46053693,7.24564937 7.4729156,6.06141991 7.4729156,6.06141991 C7.4729156,5.32004081 8.07499354,4.71902236 8.81767956,4.71902236 C9.56036558,4.71902236 10.1624435,5.32004081 10.1624435,6.06141991 C10.1624435,6.06141991 10.1748222,7.24564937 10.2091094,7.62756168 C10.2267787,7.82384991 10.22783,8.05639629 10.4896812,8.35428179 C10.9700751,8.90076069 11.3951551,9.52832105 11.3951551,10.3123906 C11.3951551,11.7333644 10.2411922,12.8853306 8.81767956,12.8853306 M14.2439439,1.35417891e-05 L3.39141521,1.35417891e-05 C1.51837051,1.35417891e-05 0,1.51571214 0,3.38546082 L0,14.2188921 C0,16.0886069 1.51837051,17.6043394 3.39141521,17.6043394 L14.2439439,17.6043394 C16.1169886,17.6043394 17.6353591,16.0886069 17.6353591,14.2188921 L17.6353591,3.38546082 C17.6353591,1.51571214 16.1169886,1.35417891e-05 14.2439439,1.35417891e-05" id="Fill-1" fill="#FEFEFE" mask="url(#mask-2)"></path>
                </g>
                <path d="M5.54724969,12.7147684 L5.54724969,5.78749999 C5.54724969,3.7163172 7.01437591,2.03127852 8.81769312,2.03127852 C10.6209764,2.03127852 12.0881026,3.7163172 12.0881026,5.78749999 L12.0881026,12.7147684 L14.1229518,12.7147684 L14.1229518,5.78749999 C14.1229518,4.26215286 13.5845985,2.82299922 12.6070231,1.7351196 C11.601638,0.616195416 10.2558906,1.01563418e-05 8.81769312,1.01563418e-05 C7.37946176,1.01563418e-05 6.0337482,0.616195416 5.02832925,1.7351196 C4.05075381,2.82299922 3.51240056,4.26215286 3.51240056,5.78749999 L3.51240056,12.7147684 L5.54724969,12.7147684 Z" id="Fill-4" fill="#FEFEFE"></path>
            </g>
        </g>
    </g>
</svg>