<?xml version="1.0" encoding="UTF-8" standalone="no"?>
<svg width="27px" height="28px" viewBox="0 0 27 28" version="1.1" xmlns="http://www.w3.org/2000/svg" xmlns:xlink="http://www.w3.org/1999/xlink">
    <!-- Generator: Sketch 41 (35326) - http://www.bohemiancoding.com/sketch -->
    <title>Page 1</title>
    <desc>Created with Sketch.</desc>
    <defs>
        <polygon id="path-1" points="20.7873981 21.1057942 20.7873981 0.0545311995 0.00352212441 0.0545311995 0.00352212441 21.1057942 20.7873981 21.1057942"></polygon>
    </defs>
    <g id="Page-1" stroke="none" stroke-width="1" fill="none" fill-rule="evenodd">
        <g id="SignIn-/-Signup-Copy" transform="translate(-111.000000, -462.000000)">
            <g id="Page-1" transform="translate(111.000000, 462.000000)">
                <g id="Group-3" transform="translate(5.441305, 6.599283)">
                    <mask id="mask-2" fill="white">
                        <use xlink:href="#path-1"></use>
                    </mask>
                    <g id="Clip-2"></g>
                    <path d="M19.1042515,3.20727251 L5.70902932,0.109406346 C5.55144028,0.0729792544 5.38999256,0.0545311995 5.22916222,0.0545311995 C4.22775414,0.0545311995 3.3393286,0.771347569 3.11660482,1.75894386 L0.0582045294,15.3270192 C-0.0700584352,15.8962511 0.0290328082,16.4833058 0.337419575,16.9804652 C0.645806342,17.4776247 1.12505605,17.8229785 1.68688179,17.9528966 L15.082104,21.0509191 C15.2395387,21.0871898 15.4009864,21.1057942 15.5618167,21.1057942 C16.5632248,21.1057942 17.4516504,20.3888215 17.6743741,19.4012252 L20.7329288,5.83299354 C20.9984069,4.65435044 20.2678791,3.47648904 19.1042515,3.20727251" id="Fill-1" fill="#358CFD" mask="url(#mask-2)"></path>
                </g>
                <g id="Group-6" transform="translate(0.698285, 0.868434)" fill="#358CFD">
                    <path d="M9.49505569,4.22063355 L17.9091679,6.16659066 L17.9091679,1.93901564 C17.9091679,0.907175282 17.0756902,0.0629422618 16.0569951,0.0629422618 L1.85221908,0.0629422618 C0.833524053,0.0629422618 4.63043194e-05,0.907175282 4.63043194e-05,1.93901564 L4.63043194e-05,16.3270914 C4.63043194e-05,17.3589318 0.833524053,18.2031648 1.85221908,18.2031648 L3.65175928,18.2031648 L6.35284457,6.22005875 C6.62279876,5.02312393 7.69952853,4.15418928 8.91316474,4.15403294 C9.10826027,4.15403294 9.30397319,4.17638948 9.49505569,4.22063355 Z" id="Fill-4"></path>
                </g>
            </g>
        </g>
    </g>
</svg>