<svg width="50" height="50" viewBox="0 0 50 50" xmlns="http://www.w3.org/2000/svg" xmlns:xlink="http://www.w3.org/1999/xlink"><defs><path id="a" d="M24.533.023H0V24.33h24.533V.023z"/><path id="c" d="M0 17.188h18.192V.023H.002v17.164z"/></defs><g fill="none" fill-rule="evenodd"><circle fill="#2F84EB" cx="25" cy="25" r="25"/><g transform="translate(10 13.052)"><mask id="b" fill="#fff"><use xlink:href="#a"/></mask><path d="M13.968 8.28c1.96-1.63 4.546-2.528 7.28-2.528 1.132 0 2.238.154 3.285.45-.632-1.12-1.498-2.15-2.578-3.048-2.428-2.02-5.65-3.13-9.075-3.13-3.424 0-6.646 1.11-9.074 3.13C1.352 5.194 0 7.917 0 10.818c0 1.73.473 3.382 1.405 4.91.842 1.382 2.053 2.614 3.512 3.577l-.03 4.576c0 .16.083.31.22.39.067.04.142.06.218.06.076 0 .15-.02.22-.06l4.824-2.862c.824.137 1.667.206 2.51.206.473 0 .94-.022 1.405-.064-.107-.082-.213-.166-.317-.252-2.062-1.715-3.198-4.027-3.198-6.51 0-2.48 1.136-4.793 3.198-6.508z" fill="#075CC1" mask="url(#b)"/></g><g transform="translate(22.15 20.194)"><mask id="d" fill="#fff"><use xlink:href="#c"/></mask><path d="M15.505 2.234c-.7-.58-1.49-1.056-2.348-1.414C11.91.298 10.53.023 9.097.023c-2.418 0-4.694.785-6.408 2.21C.955 3.676 0 5.598 0 7.647c0 2.05.956 3.97 2.69 5.412.465.388.973.727 1.513 1.017 1.448.777 3.133 1.194 4.894 1.194.595 0 1.19-.05 1.773-.146l3.407 2.02c.048.03.1.044.155.044.053 0 .107-.015.155-.043.095-.057.154-.162.153-.275l-.02-3.23c1.03-.68 1.885-1.55 2.48-2.527.658-1.08.992-2.246.992-3.467 0-2.05-.954-3.97-2.687-5.412" fill="#075CC1" mask="url(#d)"/></g></g></svg>