<?xml version="1.0" encoding="UTF-8" standalone="no"?>
<svg width="38px" height="38px" viewBox="0 0 38 38" version="1.1" xmlns="http://www.w3.org/2000/svg" xmlns:xlink="http://www.w3.org/1999/xlink">
    <!-- Generator: Sketch 41 (35326) - http://www.bohemiancoding.com/sketch -->
    <title>Page 1 Copy</title>
    <desc>Created with Sketch.</desc>
    <defs></defs>
    <g id="Page-1" stroke="none" stroke-width="1" fill="none" fill-rule="evenodd">
        <g id="EditProfile-Copy" transform="translate(-168.000000, -533.000000)" fill="#BABABD">
            <g id="Page-1-Copy" transform="translate(168.000000, 533.000000)">
                <path d="M18.9465946,35.3256216 C9.91517568,35.3256216 2.56756757,27.9780135 2.56756757,18.9465946 C2.56756757,9.91517568 9.91517568,2.56756757 18.9465946,2.56756757 C27.9780135,2.56756757 35.3256216,9.91517568 35.3256216,18.9465946 C35.3256216,27.9780135 27.9780135,35.3256216 18.9465946,35.3256216 M18.9465946,0 C8.49941892,0 0,8.49941892 0,18.9465946 C0,29.3937703 8.49941892,37.8931892 18.9465946,37.8931892 C29.3937703,37.8931892 37.8931892,29.3937703 37.8931892,18.9465946 C37.8931892,8.49941892 29.3937703,0 18.9465946,0" id="Fill-1"></path>
                <path d="M26.4993257,17.4162858 L20.195177,17.4162858 L20.195177,7.26078581 C20.195177,6.41913716 19.5065554,5.73038716 18.6647784,5.73038716 C17.8231297,5.73038716 17.1345081,6.41913716 17.1345081,7.26078581 L17.1345081,18.9465561 C17.1345081,19.7883331 17.8231297,20.4769547 18.6647784,20.4769547 L26.4993257,20.4769547 C27.3409743,20.4769547 28.0295959,19.7883331 28.0295959,18.9465561 C28.0295959,18.1049074 27.3409743,17.4162858 26.4993257,17.4162858" id="Fill-3"></path>
            </g>
        </g>
    </g>
</svg>
