<?xml version="1.0" encoding="UTF-8" standalone="no"?>
<svg width="19px" height="10px" viewBox="0 0 19 10" version="1.1" xmlns="http://www.w3.org/2000/svg" xmlns:xlink="http://www.w3.org/1999/xlink">
    <!-- Generator: Sketch 41 (35326) - http://www.bohemiancoding.com/sketch -->
    <title>Page 1</title>
    <desc>Created with Sketch.</desc>
    <defs>
        <polygon id="path-1" points="0.129560345 9.84375 12.3965172 9.84375 12.3965172 4.97080469 12.3965172 0.097859375 0.129560345 0.097859375 0.129560345 9.84375"></polygon>
        <polygon id="path-3" points="14.1156897 9.84375 1.16382e-15 9.84375 1.16382e-15 4.97080469 0 0.097859375 14.1156897 0.097859375"></polygon>
    </defs>
    <g id="Page-1" stroke="none" stroke-width="1" fill="none" fill-rule="evenodd">
        <g id="EditProfile-Copy-4" transform="translate(-189.000000, -230.000000)">
            <g id="Page-1" transform="translate(189.000000, 230.000000)">
                <path d="M10.2169716,9.74595313 C10.0025664,9.74595313 9.78979914,9.69626563 9.60127328,9.60204688 C9.5627819,9.58298438 9.52510948,9.56157813 9.48841983,9.53860938 C9.41405776,9.49189063 9.3442819,9.43767188 9.28122155,9.37751563 L7.23200603,7.42267188 C6.71605776,6.93032813 6.71605776,6.12939063 7.23200603,5.63720313 C7.48097155,5.39970313 7.81330776,5.26892188 8.16775603,5.26892188 C8.52220431,5.26892188 8.85454052,5.39970313 9.10350603,5.63720313 L10.2169716,6.69939063 L16.5261181,0.680953125 C16.7750836,0.443296875 17.107256,0.312515625 17.4617043,0.312515625 C17.8163164,0.312515625 18.1486526,0.443296875 18.3976181,0.680953125 C18.9135664,1.17314063 18.9135664,1.97407813 18.3976181,2.46626563 L11.1527216,9.37751563 C11.0896612,9.43767188 11.0198853,9.49204688 10.9453595,9.53876563 C10.9088336,9.56173438 10.8711612,9.58298438 10.8328336,9.60204688 C10.6443078,9.69626563 10.4313767,9.74595313 10.2169716,9.74595313" id="Fill-1" fill="#0076FF"></path>
                <g id="Group-5" transform="translate(6.551724, 0.058391)">
                    <mask id="mask-2" fill="white">
                        <use xlink:href="#path-1"></use>
                    </mask>
                    <g id="Clip-4"></g>
                    <path d="M10.9100948,0.097859375 C10.5119138,0.097859375 10.1384655,0.244890625 9.8585431,0.512078125 L3.66519828,6.42004687 L2.66769828,5.46832812 C2.38761207,5.20129687 2.01416379,5.05410937 1.61598276,5.05410937 C1.21780172,5.05410937 0.844353448,5.20129687 0.564431034,5.46832812 C-0.0153965517,6.02145312 -0.0153965517,6.92160937 0.564431034,7.47473437 L2.61364655,9.42957812 C2.68473276,9.49739062 2.76302586,9.55832812 2.84656034,9.61082812 C2.88750862,9.63645312 2.93025862,9.66051562 2.9735,9.68207812 C3.18528448,9.78785937 3.42458621,9.84379687 3.66519828,9.84379687 C3.90597414,9.84379687 4.14511207,9.78785937 4.35706034,9.68207812 C4.40030172,9.66051562 4.44288793,9.63645312 4.48383621,9.61082812 C4.56737069,9.55832812 4.64582759,9.49739062 4.71691379,9.42957812 L11.9616466,2.51832812 C12.5414741,1.96520312 12.5414741,1.06520312 11.9616466,0.512078125 C11.6817241,0.244890625 11.3082759,0.097859375 10.9100948,0.097859375 M10.9100948,0.410359375 C11.2073793,0.410359375 11.5045,0.517859375 11.7300431,0.733015625 C12.1809655,1.16317187 12.1809655,1.86723437 11.7300431,2.29739062 L4.48514655,9.20864062 C4.42880172,9.26239062 4.36803448,9.30942187 4.30382759,9.34973437 C4.27172414,9.36989062 4.23863793,9.38848437 4.20506034,9.40520312 C4.03684483,9.48926562 3.85110345,9.53129687 3.66519828,9.53129687 C3.4794569,9.53129687 3.29371552,9.48926562 3.1255,9.40520312 C3.09175862,9.38848437 3.05883621,9.36989062 3.02673276,9.34973437 C2.96252586,9.30942187 2.90175862,9.26239062 2.84525,9.20864062 L0.796034483,7.25379687 C0.345112069,6.82348437 0.345112069,6.11957812 0.796034483,5.68926562 L0.796034483,5.68926562 C1.02157759,5.47426562 1.31886207,5.36660937 1.61598276,5.36660937 C1.91326724,5.36660937 2.21055172,5.47426562 2.43593103,5.68926562 L3.66519828,6.86207812 L10.0901466,0.733015625 C10.3156897,0.517859375 10.6128103,0.410359375 10.9100948,0.410359375" id="Fill-3" fill="#0076FF" mask="url(#mask-2)"></path>
                </g>
                <path d="M5.385075,9.74595313 C5.17066983,9.74595313 4.95773879,9.69626563 4.76937672,9.60204688 C4.73088534,9.58298438 4.69321293,9.56157813 4.65652328,9.53860938 C4.58216121,9.49189063 4.51238534,9.43767188 4.449325,9.37751563 L0.550721552,5.65845313 C0.301592241,5.42079688 0.164497414,5.10392188 0.164497414,4.76564063 C0.164497414,4.42767188 0.301592241,4.11064063 0.550721552,3.87314063 C0.799687069,3.63548438 1.13202328,3.50470313 1.48647155,3.50470313 C1.84091983,3.50470313 2.17325603,3.63548438 2.42222155,3.87314063 L5.385075,6.69939063 L11.6942216,0.680953125 C11.9431871,0.443296875 12.2753595,0.312515625 12.6298078,0.312515625 C12.9844198,0.312515625 13.316756,0.443296875 13.5657216,0.680953125 C14.0816698,1.17314063 14.0816698,1.97407813 13.5657216,2.46626563 L6.320825,9.37751563 C6.25792845,9.43767188 6.18798879,9.49189063 6.11362672,9.53876563 C6.07693707,9.56173438 6.03926466,9.58298438 6.00093707,9.60204688 C5.81241121,9.69626563 5.59948017,9.74595313 5.385075,9.74595313" id="Fill-6" fill="#0076FF"></path>
                <g id="Group-10" transform="translate(0.000000, 0.058391)">
                    <mask id="mask-4" fill="white">
                        <use xlink:href="#path-3"></use>
                    </mask>
                    <g id="Clip-9"></g>
                    <path d="M12.6299224,0.097859375 C12.2317414,0.097859375 11.8582931,0.244890625 11.5783707,0.512078125 L5.38502586,6.42004687 L2.53813793,3.70410937 C2.25805172,3.43707812 1.88460345,3.29004687 1.48642241,3.29004687 C1.08840517,3.29004687 0.714793103,3.43707812 0.43487069,3.70410937 C-0.144956897,4.25723437 -0.144956897,5.15739062 0.43487069,5.71051562 L4.33347414,9.42957812 C4.40456034,9.49739062 4.48301724,9.55832812 4.56638793,9.61082812 C4.60733621,9.63645312 4.65008621,9.66051562 4.69332759,9.68207812 C4.90511207,9.78785937 5.14441379,9.84379687 5.38502586,9.84379687 C5.62580172,9.84379687 5.86493966,9.78785937 6.07688793,9.68207812 C6.12012931,9.66051562 6.16287931,9.63645312 6.20366379,9.61082812 C6.28719828,9.55832812 6.36565517,9.49739062 6.43674138,9.42957812 L13.6814741,2.51832812 C13.9615603,2.25129687 14.1156897,1.89504687 14.1156897,1.51520312 C14.1156897,1.13535937 13.9615603,0.779109375 13.6814741,0.512078125 C13.4015517,0.244890625 13.0281034,0.097859375 12.6299224,0.097859375 M12.6299224,0.410359375 C12.9272069,0.410359375 13.2243276,0.517859375 13.4498707,0.733015625 C13.9007931,1.16317187 13.9007931,1.86723437 13.4498707,2.29739062 L6.20497414,9.20864062 C6.14862931,9.26239062 6.08786207,9.30942187 6.02365517,9.34973437 C5.99155172,9.36989062 5.95846552,9.38848437 5.92488793,9.40520312 C5.75667241,9.48926562 5.57093103,9.53129687 5.38502586,9.53129687 C5.19928448,9.53129687 5.0135431,9.48926562 4.84532759,9.40520312 C4.81158621,9.38848437 4.77866379,9.36989062 4.74656034,9.34973437 C4.68235345,9.30942187 4.62158621,9.26239062 4.56507759,9.20864062 L0.666474138,5.48957812 C0.215551724,5.05926562 0.215551724,4.35535937 0.666474138,3.92520312 L0.666474138,3.92520312 C0.892017241,3.71004687 1.18930172,3.60254687 1.48642241,3.60254687 C1.7837069,3.60254687 2.08099138,3.71004687 2.30637069,3.92520312 L5.38502586,6.86207812 L11.8099741,0.733015625 C12.0355172,0.517859375 12.3326379,0.410359375 12.6299224,0.410359375" id="Fill-8" fill="#0076FF" mask="url(#mask-4)"></path>
                </g>
            </g>
        </g>
    </g>
</svg>
