<?xml version="1.0" encoding="UTF-8" standalone="no"?>
<svg width="19px" height="10px" viewBox="0 0 19 10" version="1.1" xmlns="http://www.w3.org/2000/svg" xmlns:xlink="http://www.w3.org/1999/xlink">
    <!-- Generator: Sketch 41 (35326) - http://www.bohemiancoding.com/sketch -->
    <title>Page 1</title>
    <desc>Created with Sketch.</desc>
    <defs>
        <polygon id="path-1" points="0.129560345 9.84375 12.3965172 9.84375 12.3965172 4.97080469 12.3965172 0.097859375 0.129560345 0.097859375 0.129560345 9.84375"></polygon>
        <polygon id="path-3" points="14.1156897 9.84375 1.16382e-15 9.84375 1.16382e-15 4.97080469 0 0.097859375 14.1156897 0.097859375"></polygon>
    </defs>
    <g id="Page-1" stroke="none" stroke-width="1" fill="none" fill-rule="evenodd">
        <g id="EditProfile-Copy-4" transform="translate(-189.000000, -230.000000)">
            <g id="Page-1" transform="translate(189.000000, 230.000000)">
                <path d="M5.385075,9.74595313 C5.17066983,9.74595313 4.95773879,9.69626563 4.76937672,9.60204688 C4.73088534,9.58298438 4.69321293,9.56157813 4.65652328,9.53860938 C4.58216121,9.49189063 4.51238534,9.43767188 4.449325,9.37751563 L0.550721552,5.65845313 C0.301592241,5.42079688 0.164497414,5.10392188 0.164497414,4.76564063 C0.164497414,4.42767188 0.301592241,4.11064063 0.550721552,3.87314063 C0.799687069,3.63548438 1.13202328,3.50470313 1.48647155,3.50470313 C1.84091983,3.50470313 2.17325603,3.63548438 2.42222155,3.87314063 L5.385075,6.69939063 L11.6942216,0.680953125 C11.9431871,0.443296875 12.2753595,0.312515625 12.6298078,0.312515625 C12.9844198,0.312515625 13.316756,0.443296875 13.5657216,0.680953125 C14.0816698,1.17314063 14.0816698,1.97407813 13.5657216,2.46626563 L6.320825,9.37751563 C6.25792845,9.43767188 6.18798879,9.49189063 6.11362672,9.53876563 C6.07693707,9.56173438 6.03926466,9.58298438 6.00093707,9.60204688 C5.81241121,9.69626563 5.59948017,9.74595313 5.385075,9.74595313" id="Fill-6" fill="#0076FF"></path>
                <g id="Group-10" transform="translate(0.000000, 0.058391)">
                    <mask id="mask-4" fill="white">
                        <use xlink:href="#path-3"></use>
                    </mask>
                    <g id="Clip-9"></g>
                    <path d="M12.6299224,0.097859375 C12.2317414,0.097859375 11.8582931,0.244890625 11.5783707,0.512078125 L5.38502586,6.42004687 L2.53813793,3.70410937 C2.25805172,3.43707812 1.88460345,3.29004687 1.48642241,3.29004687 C1.08840517,3.29004687 0.714793103,3.43707812 0.43487069,3.70410937 C-0.144956897,4.25723437 -0.144956897,5.15739062 0.43487069,5.71051562 L4.33347414,9.42957812 C4.40456034,9.49739062 4.48301724,9.55832812 4.56638793,9.61082812 C4.60733621,9.63645312 4.65008621,9.66051562 4.69332759,9.68207812 C4.90511207,9.78785937 5.14441379,9.84379687 5.38502586,9.84379687 C5.62580172,9.84379687 5.86493966,9.78785937 6.07688793,9.68207812 C6.12012931,9.66051562 6.16287931,9.63645312 6.20366379,9.61082812 C6.28719828,9.55832812 6.36565517,9.49739062 6.43674138,9.42957812 L13.6814741,2.51832812 C13.9615603,2.25129687 14.1156897,1.89504687 14.1156897,1.51520312 C14.1156897,1.13535937 13.9615603,0.779109375 13.6814741,0.512078125 C13.4015517,0.244890625 13.0281034,0.097859375 12.6299224,0.097859375 M12.6299224,0.410359375 C12.9272069,0.410359375 13.2243276,0.517859375 13.4498707,0.733015625 C13.9007931,1.16317187 13.9007931,1.86723437 13.4498707,2.29739062 L6.20497414,9.20864062 C6.14862931,9.26239062 6.08786207,9.30942187 6.02365517,9.34973437 C5.99155172,9.36989062 5.95846552,9.38848437 5.92488793,9.40520312 C5.75667241,9.48926562 5.57093103,9.53129687 5.38502586,9.53129687 C5.19928448,9.53129687 5.0135431,9.48926562 4.84532759,9.40520312 C4.81158621,9.38848437 4.77866379,9.36989062 4.74656034,9.34973437 C4.68235345,9.30942187 4.62158621,9.26239062 4.56507759,9.20864062 L0.666474138,5.48957812 C0.215551724,5.05926562 0.215551724,4.35535937 0.666474138,3.92520312 L0.666474138,3.92520312 C0.892017241,3.71004687 1.18930172,3.60254687 1.48642241,3.60254687 C1.7837069,3.60254687 2.08099138,3.71004687 2.30637069,3.92520312 L5.38502586,6.86207812 L11.8099741,0.733015625 C12.0355172,0.517859375 12.3326379,0.410359375 12.6299224,0.410359375" id="Fill-8" fill="#0076FF" mask="url(#mask-4)"></path>
                </g>
            </g>
        </g>
    </g>
</svg>
