<?xml version="1.0" encoding="UTF-8" standalone="no"?>
<svg width="135px" height="134px" viewBox="0 0 135 134" version="1.1" xmlns="http://www.w3.org/2000/svg" xmlns:xlink="http://www.w3.org/1999/xlink">
    <!-- Generator: Sketch 41 (35326) - http://www.bohemiancoding.com/sketch -->
    <title>Page 1</title>
    <desc>Created with Sketch.</desc>
    <defs>
        <polygon id="path-1" points="52.0701 0.305230839 0.197475 0.305230839 0.197475 57.0563058 52.0701 57.0563058 52.0701 0.305230839"></polygon>
        <polygon id="path-3" points="0.00015 71.620504 100.6974 71.620504 100.6974 0.101431133 0.00015 0.101431133"></polygon>
    </defs>
    <g id="Page-1" stroke="none" stroke-width="1" fill="none" fill-rule="evenodd">
        <g id="iPhone-7-Copy-4" transform="translate(-134.000000, -170.000000)">
            <g id="Page-1" transform="translate(134.000000, 170.000000)">
                <g id="Group-3" transform="translate(28.125000, 0.069746)">
                    <mask id="mask-2" fill="white">
                        <use xlink:href="#path-1"></use>
                    </mask>
                    <g id="Clip-2"></g>
                    <path d="M52.0701,28.6807121 C52.0701,44.3521033 40.458225,57.0563058 26.133975,57.0563058 C11.809725,57.0563058 0.197475,44.3521033 0.197475,28.6807121 C0.197475,13.0093208 11.809725,0.305118346 26.133975,0.305118346 C40.458225,0.305118346 52.0701,13.0093208 52.0701,28.6807121" id="Fill-1" fill="#CFD8E0" mask="url(#mask-2)"></path>
                </g>
                <g id="Group-6" transform="translate(0.000000, 62.315838)">
                    <mask id="mask-4" fill="white">
                        <use xlink:href="#path-3"></use>
                    </mask>
                    <g id="Clip-5"></g>
                    <path d="M100.6974,19.124362 C94.23015,9.59508517 84.24915,2.61939807 72.654525,0.101431133 L59.1609,13.5747104 C57.8064,14.9268755 56.03265,15.602958 54.2589,15.602958 C52.48515,15.602958 50.711025,14.9268755 49.3569,13.5747104 L35.8629,0.101431133 C15.428025,4.53927755 0.00015,22.820505 0.00015,44.532767 L0.00015,59.3098393 C16.42065,67.1993441 34.823025,71.6206915 54.2589,71.6206915 C66.7569,71.6206915 78.826275,69.7896815 90.21765,66.3867701 C85.178775,61.1580983 82.070025,54.0571691 82.070025,46.2400348 C82.070025,33.8928099 89.81415,23.3267232 100.6974,19.124362" id="Fill-4" fill="#CFD8E0" mask="url(#mask-4)"></path>
                </g>
                <path d="M100.221225,119.372706 C98.84835,117.999918 97.791975,116.431766 97.0446,114.758996 C94.511475,109.088602 95.56785,102.204409 100.221225,97.5513263 C105.1311,92.6417594 112.525725,91.7335665 118.356225,94.8237475 C119.682225,95.5264534 120.9276,96.4350213 122.043975,97.5513263 C128.070225,103.577198 128.070225,113.346835 122.043975,119.372706 C116.017725,125.398578 106.247475,125.398578 100.221225,119.372706 M127.970475,91.6251983 C126.064725,89.7191929 123.91335,88.2106626 121.62135,87.0861082 C112.73085,82.7236321 101.68785,84.2321624 94.294725,91.6251983 C89.091975,96.8276217 86.802225,103.838557 87.42135,110.634255 C87.908475,115.985169 90.198225,121.202592 94.294725,125.298834 C103.593975,134.597876 118.671225,134.597501 127.970475,125.298834 C137.2701,116.000168 137.2701,100.923865 127.970475,91.6251983" id="Fill-7" fill="#EB1F46"></path>
                <polygon id="Fill-9" fill="#EB1F46" points="121.413112 123.514546 95.6922375 97.7952859 100.465237 93.0225855 126.186112 118.741846"></polygon>
            </g>
        </g>
    </g>
</svg>