<?xml version="1.0" encoding="UTF-8" standalone="no"?>
<svg width="149px" height="146px" viewBox="0 0 149 146" version="1.1" xmlns="http://www.w3.org/2000/svg" xmlns:xlink="http://www.w3.org/1999/xlink">
    <!-- Generator: Sketch 41 (35326) - http://www.bohemiancoding.com/sketch -->
    <title>Page 1</title>
    <desc>Created with Sketch.</desc>
    <defs>
        <path d="M0.322,28.751 C0.322,44.422 11.935,57.126 26.259,57.126 C40.583,57.126 52.195,44.422 52.195,28.751 C52.195,13.079 40.583,0.375 26.259,0.375 C11.935,0.375 0.322,13.079 0.322,28.751 Z" id="path-1"></path>
        <path d="M59.161,13.891 C57.806,15.243 56.032,15.919 54.259,15.919 C52.485,15.919 50.711,15.243 49.357,13.891 L35.863,0.417 C15.428,4.855 0,23.137 0,44.848 L0,59.625 C16.421,67.516 34.823,71.936 54.259,71.936 C66.757,71.936 78.827,70.106 90.218,66.703 C85.179,61.474 82.07,54.373 82.07,46.556 C82.07,34.208 89.814,23.642 100.697,19.44 C94.23,9.911 84.249,2.935 72.654,0.417 L59.161,13.891 Z" id="path-3"></path>
        <path d="M7.295,7.625 C2.092,12.827 -0.198,19.838 0.422,26.634 C0.908,31.984 3.198,37.201 7.295,41.298 C16.594,50.597 31.671,50.597 40.97,41.298 C50.27,31.999 50.27,16.923 40.97,7.625 C39.065,5.719 36.913,4.21 34.622,3.085 C31.32,1.465 27.721,0.655 24.123,0.655 C18.032,0.655 11.942,2.977 7.295,7.625 Z M13.221,35.372 C11.848,33.999 10.792,32.431 10.044,30.758 C7.512,25.087 8.568,18.203 13.221,13.55 C18.131,8.641 25.525,7.733 31.356,10.822 C32.682,11.525 33.928,12.434 35.044,13.55 C41.07,19.577 41.07,29.346 35.044,35.372 C32.031,38.385 28.082,39.892 24.133,39.892 C20.184,39.892 16.235,38.385 13.221,35.372 Z" id="path-5"></path>
        <path d="M7.295,7.625 C2.092,12.827 -0.198,19.838 0.422,26.634 C0.908,31.984 3.198,37.201 7.295,41.298 C16.594,50.597 31.671,50.597 40.97,41.298 C50.27,31.999 50.27,16.923 40.97,7.625 C39.065,5.719 36.913,4.21 34.622,3.085 C31.32,1.465 27.721,0.655 24.123,0.655 C18.032,0.654 11.943,2.977 7.295,7.625 Z M13.221,35.372 C11.848,33.999 10.792,32.431 10.044,30.758 C7.512,25.087 8.568,18.203 13.221,13.55 C18.131,8.641 25.525,7.733 31.356,10.822 C32.682,11.525 33.928,12.434 35.044,13.55 C41.07,19.577 41.07,29.346 35.044,35.372 C32.031,38.385 28.081,39.892 24.132,39.892 C20.184,39.892 16.235,38.385 13.221,35.372 Z" id="path-7"></path>
    </defs>
    <g id="Page-1" stroke="none" stroke-width="1" fill="none" fill-rule="evenodd">
        <g id="iPhone-7-Copy-6" transform="translate(-134.000000, -230.000000)">
            <g id="Page-1" transform="translate(134.000000, 230.000000)">
                <g id="Group-3" transform="translate(28.000000, 0.001000)">
                    <mask id="mask-2" fill="white">
                        <use xlink:href="#path-1"></use>
                    </mask>
                    <g id="Clip-2"></g>
                    <polygon id="Fill-1" fill="#CFD8E0" mask="url(#mask-2)" points="-4.678 62.126 57.195 62.126 57.195 -4.625 -4.678 -4.625"></polygon>
                </g>
                <g id="Group-6" transform="translate(0.000000, 62.001000)">
                    <mask id="mask-4" fill="white">
                        <use xlink:href="#path-3"></use>
                    </mask>
                    <g id="Clip-5"></g>
                    <polygon id="Fill-4" fill="#CFD8E0" mask="url(#mask-4)" points="-5 76.936 105.697 76.936 105.697 -4.583 -5 -4.583"></polygon>
                </g>
                <path d="M100.2212,119.3728 C98.8482,117.9998 97.7922,116.4318 97.0442,114.7588 C94.5112,109.0888 95.5682,102.2048 100.2212,97.5518 C105.1312,92.6418 112.5262,91.7338 118.3562,94.8238 C119.6822,95.5268 120.9272,96.4348 122.0442,97.5518 C128.0702,103.5768 128.0702,113.3468 122.0442,119.3728 C116.0182,125.3988 106.2472,125.3988 100.2212,119.3728 M127.9702,91.6258 C126.0652,89.7188 123.9132,88.2108 121.6212,87.0858 C112.7312,82.7238 101.6882,84.2318 94.2952,91.6258 C89.0922,96.8278 86.8022,103.8388 87.4212,110.6348 C87.9082,115.9848 90.1982,121.2028 94.2952,125.2988 C103.5942,134.5978 118.6712,134.5978 127.9702,125.2988 C137.2702,115.9998 137.2702,100.9238 127.9702,91.6258" id="Fill-7" fill="#AFB9C1"></path>
                <g id="Group-11" transform="translate(87.000000, 84.001000)">
                    <mask id="mask-6" fill="white">
                        <use xlink:href="#path-5"></use>
                    </mask>
                    <g id="Clip-10"></g>
                    <polygon id="Fill-9" fill="#AFB9C1" mask="url(#mask-6)" points="-221 412.999 154 412.999 154 -254.001 -221 -254.001"></polygon>
                </g>
                <g id="Group-14" transform="translate(87.000000, 84.001000)">
                    <mask id="mask-8" fill="white">
                        <use xlink:href="#path-7"></use>
                    </mask>
                    <g id="Clip-13"></g>
                    <polygon id="Fill-12" fill="#AFB9C1" mask="url(#mask-8)" points="-4.677 53.272 52.946 53.272 52.946 -4.345 -4.677 -4.345"></polygon>
                </g>
                <path d="M146.8884,138.5326 L130.5784,122.2226 C128.9114,120.5556 126.1844,120.5556 124.5174,122.2226 C122.8514,123.8886 122.8514,126.6156 124.5174,128.2826 L140.8284,144.5926 C142.4944,146.2596 145.2214,146.2596 146.8884,144.5926 C148.5554,142.9266 148.5554,140.1996 146.8884,138.5326" id="Fill-15" fill="#AFB9C1"></path>
            </g>
        </g>
    </g>
</svg>